{
  "accessors": [
    {
      "bufferView": 2,
      "componentType": 5126,
      "count": 240,
      "max": [
        0.12067899852991104,
        1.2281030416488647,
        6.719735145568848
      ],
      "min": [
        -0.059950001537799835,
        0.24356800317764282,
        5.67922306060791
      ],
      "type": "VEC3"
    },
    {
      "bufferView": 2,
      "byteOffset": 2880,
      "componentType": 5126,
      "count": 240,
      "max": [
        0.7706719636917114,
        0.9902334213256836,
        0.9385610222816467
      ],
      "min": [
        -0.7706606984138489,
        -0.9902088642120361,
        -0.9385591149330139
      ],
      "type": "VEC3"
    },
    {
      "bufferView": 1,
      "componentType": 5126,
      "count": 240,
      "max": [
        0.5586940050125122,
        0.8405569791793823
      ],
      "min": [
        0.42438000440597534,
        0.7134680151939392
      ],
      "type": "VEC2"
    },
    {
      "bufferView": 0,
      "componentType": 5125,
      "count": 1320,
      "type": "SCALAR"
    },
    {
      "bufferView": 2,
      "byteOffset": 5760,
      "componentType": 5126,
      "count": 294,
      "max": [
        5.082763195037842,
        1.9515260457992554,
        5.180215835571289
      ],
      "min": [
        -5.084860801696777,
        1.6091129779815674,
        -5.013998985290527
      ],
      "type": "VEC3"
    },
    {
      "bufferView": 2,
      "byteOffset": 9288,
      "componentType": 5126,
      "count": 294,
      "max": [
        0.9999877214431763,
        0.9993523359298706,
        0.9996891021728516
      ],
      "min": [
        -0.9999877214431763,
        -0.999998927116394,
        -0.9997892379760742
      ],
      "type": "VEC3"
    },
    {
      "bufferView": 1,
      "byteOffset": 1920,
      "componentType": 5126,
      "count": 294,
      "max": [
        0.9770519733428955,
        0.9794849753379822
      ],
      "min": [
        0.6316080093383789,
        0.9567829966545105
      ],
      "type": "VEC2"
    },
    {
      "bufferView": 0,
      "byteOffset": 5280,
      "componentType": 5125,
      "count": 1440,
      "type": "SCALAR"
    },
    {
      "bufferView": 2,
      "byteOffset": 12816,
      "componentType": 5126,
      "count": 10448,
      "max": [
        1.4319250583648682,
        2.557797908782959,
        7.555828094482422
      ],
      "min": [
        -1.4718960523605347,
        -1.3969639539718628,
        -3.6191790103912354
      ],
      "type": "VEC3"
    },
    {
      "bufferView": 2,
      "byteOffset": 138192,
      "componentType": 5126,
      "count": 10448,
      "max": [
        1.0,
        1.0,
        1.0
      ],
      "min": [
        -1.0,
        -1.0,
        -1.0
      ],
      "type": "VEC3"
    },
    {
      "bufferView": 1,
      "byteOffset": 4272,
      "componentType": 5126,
      "count": 10448,
      "max": [
        0.9797629714012146,
        0.994513988494873
      ],
      "min": [
        0.012519000098109245,
        0.0031789999920874834
      ],
      "type": "VEC2"
    },
    {
      "bufferView": 0,
      "byteOffset": 11040,
      "componentType": 5125,
      "count": 53178,
      "type": "SCALAR"
    },
    {
      "bufferView": 2,
      "byteOffset": 263568,
      "componentType": 5126,
      "count": 2293,
      "max": [
        0.8927320241928101,
        1.5187439918518066,
        2.6833229064941406
      ],
      "min": [
        -1.1172950267791748,
        -0.973347008228302,
        -3.427886962890625
      ],
      "type": "VEC3"
    },
    {
      "bufferView": 2,
      "byteOffset": 291084,
      "componentType": 5126,
      "count": 2293,
      "max": [
        1.0,
        0.9993548393249512,
        0.9994380474090576
      ],
      "min": [
        -1.0,
        -0.9994250535964966,
        -0.9982854127883911
      ],
      "type": "VEC3"
    },
    {
      "bufferView": 1,
      "byteOffset": 87856,
      "componentType": 5126,
      "count": 2293,
      "max": [
        0.9934589862823486,
        0.9879130125045776
      ],
      "min": [
        0.01398400031030178,
        -0.0012400000123307109
      ],
      "type": "VEC2"
    },
    {
      "bufferView": 0,
      "byteOffset": 223752,
      "componentType": 5125,
      "count": 11442,
      "type": "SCALAR"
    },
    {
      "bufferView": 2,
      "byteOffset": 318600,
      "componentType": 5126,
      "count": 722,
      "max": [
        0.8438050150871277,
        0.8909649848937988,
        -0.598904013633728
      ],
      "min": [
        -0.8438050150871277,
        -0.6011819839477539,
        -3.4419140815734863
      ],
      "type": "VEC3"
    },
    {
      "bufferView": 2,
      "byteOffset": 327264,
      "componentType": 5126,
      "count": 722,
      "max": [
        0.9999446868896484,
        0.9378190040588379,
        0.04995933920145035
      ],
      "min": [
        -0.9999446868896484,
        -0.8249695301055908,
        -0.896091878414154
      ],
      "type": "VEC3"
    },
    {
      "bufferView": 1,
      "byteOffset": 106200,
      "componentType": 5126,
      "count": 722,
      "max": [
        0.2306859940290451,
        0.6633390188217163
      ],
      "min": [
        0.009025000035762787,
        0.22473900020122528
      ],
      "type": "VEC2"
    },
    {
      "bufferView": 0,
      "byteOffset": 269520,
      "componentType": 5125,
      "count": 3780,
      "type": "SCALAR"
    }
  ],
  "asset": {
    "extras": {
      "author": "Aditya3D (https://sketchfab.com/Adityakmaurya)",
      "license": "CC-BY-4.0 (http://creativecommons.org/licenses/by/4.0/)",
      "source": "https://sketchfab.com/3d-models/helicopter-v2-42927f1c939e4447978b09dd1e22521c",
      "title": "Helicopter v2"
    },
    "generator": "Sketchfab-11.62.0",
    "version": "2.0"
  },
  "bufferViews": [
    {
      "buffer": 0,
      "byteLength": 284640,
      "name": "floatBufferViews",
      "target": 34963
    },
    {
      "buffer": 0,
      "byteLength": 111976,
      "byteOffset": 284640,
      "byteStride": 8,
      "name": "floatBufferViews",
      "target": 34962
    },
    {
      "buffer": 0,
      "byteLength": 335928,
      "byteOffset": 396616,
      "byteStride": 12,
      "name": "floatBufferViews",
      "target": 34962
    }
  ],
  "buffers": [
    {
      "byteLength": 732544,
      "uri": "scene.bin"
    }
  ],
  "images": [
    {
      "uri": "textures/Mat_maverick.012_ec135.bmp_baseColor.png"
    },
    {
      "uri": "textures/Mat_maverick.011_ec1351.bmp_baseColor.png"
    }
  ],
  "materials": [
    {
      "doubleSided": true,
      "name": "Mat_maverick.012_ec135.bmp",
      "pbrMetallicRoughness": {
        "baseColorTexture": {
          "index": 0
        },
        "metallicFactor": 0.0,
        "roughnessFactor": 0.8192426194230434
      }
    },
    {
      "doubleSided": true,
      "name": "Mat_maverick.011_ec1351.bmp",
      "pbrMetallicRoughness": {
        "baseColorTexture": {
          "index": 1
        },
        "metallicFactor": 0.0,
        "roughnessFactor": 0.8192426194230434
      }
    },
    {
      "doubleSided": true,
      "name": "Mat_maverick.008_ec135.bmp",
      "pbrMetallicRoughness": {
        "baseColorTexture": {
          "index": 0
        },
        "metallicFactor": 0.0,
        "roughnessFactor": 0.8192426194230434
      }
    },
    {
      "doubleSided": true,
      "name": "Mat_maverick.009_ec1351.bmp",
      "pbrMetallicRoughness": {
        "baseColorTexture": {
          "index": 1
        },
        "metallicFactor": 0.0,
        "roughnessFactor": 0.8192426194230434
      }
    },
    {
      "doubleSided": true,
      "name": "Mat_maverick.010",
      "pbrMetallicRoughness": {
        "baseColorFactor": [
          0.0,
          0.0,
          0.0,
          1.0
        ],
        "metallicFactor": 0.0
      }
    }
  ],
  "meshes": [
    {
      "name": "static_rotor2_Mat_maverick.012_ec135.bmp_0",
      "primitives": [
        {
          "attributes": {
            "NORMAL": 1,
            "POSITION": 0,
            "TEXCOORD_0": 2
          },
          "indices": 3,
          "material": 0,
          "mode": 4
        }
      ]
    },
    {
      "name": "static_rotor_Mat_maverick.011_ec1351.bmp_0",
      "primitives": [
        {
          "attributes": {
            "NORMAL": 5,
            "POSITION": 4,
            "TEXCOORD_0": 6
          },
          "indices": 7,
          "material": 1,
          "mode": 4
        }
      ]
    },
    {
      "name": "chassis_Mat_maverick.008_ec135.bmp_0",
      "primitives": [
        {
          "attributes": {
            "NORMAL": 9,
            "POSITION": 8,
            "TEXCOORD_0": 10
          },
          "indices": 11,
          "material": 2,
          "mode": 4
        }
      ]
    },
    {
      "name": "chassis_Mat_maverick.009_ec1351.bmp_0",
      "primitives": [
        {
          "attributes": {
            "NORMAL": 13,
            "POSITION": 12,
            "TEXCOORD_0": 14
          },
          "indices": 15,
          "material": 3,
          "mode": 4
        }
      ]
    },
    {
      "name": "chassis_Mat_maverick.010_0",
      "primitives": [
        {
          "attributes": {
            "NORMAL": 17,
            "POSITION": 16,
            "TEXCOORD_0": 18
          },
          "indices": 19,
          "material": 4,
          "mode": 4
        }
      ]
    }
  ],
  "nodes": [
    {
      "children": [
        1
      ],
      "matrix": [
        1.0,
        0.0,
        0.0,
        0.0,
        0.0,
        2.220446049250313e-16,
        -1.0,
        0.0,
        0.0,
        1.0,
        2.220446049250313e-16,
        0.0,
        0.0,
        0.0,
        0.0,
        1.0
      ],
      "name": "Sketchfab_model"
    },
    {
      "children": [
        2
      ],
      "matrix": [
        0.009999999776482582,
        0.0,
        0.0,
        0.0,
        0.0,
        0.0,
        0.009999999776482582,
        0.0,
        0.0,
        -0.009999999776482582,
        0.0,
        0.0,
        0.0,
        0.0,
        0.0,
        1.0
      ],
      "name": "Helecopter.fbx"
    },
    {
      "children": [
        3,
        5,
        7
      ],
      "name": "RootNode"
    },
    {
      "children": [
        4
      ],
      "matrix": [
        100.0,
        0.0,
        0.0,
        0.0,
        0.0,
        99.99999999999866,
        1.6292067073209114e-05,
        0.0,
        0.0,
        -1.6292067073209114e-05,
        99.99999999999866,
        0.0,
        0.0,
        0.0,
        0.0,
        1.0
      ],
      "name": "static_rotor2"
    },
    {
      "mesh": 0,
      "name": "static_rotor2_Mat_maverick.012_ec135.bmp_0"
    },
    {
      "children": [
        6
      ],
      "matrix": [
        100.0,
        0.0,
        0.0,
        0.0,
        0.0,
        99.99999999999866,
        1.6292067073209114e-05,
        0.0,
        0.0,
        -1.6292067073209114e-05,
        99.99999999999866,
        0.0,
        0.0,
        0.0,
        0.0,
        1.0
      ],
      "name": "static_rotor"
    },
    {
      "mesh": 1,
      "name": "static_rotor_Mat_maverick.011_ec1351.bmp_0"
    },
    {
      "children": [
        8,
        9,
        10
      ],
      "matrix": [
        100.0,
        0.0,
        0.0,
        0.0,
        0.0,
        99.99999999999866,
        1.6292067073209114e-05,
        0.0,
        0.0,
        -1.6292067073209114e-05,
        99.99999999999866,
        0.0,
        0.0,
        0.0,
        0.0,
        1.0
      ],
      "name": "chassis"
    },
    {
      "mesh": 2,
      "name": "chassis_Mat_maverick.008_ec135.bmp_0"
    },
    {
      "mesh": 3,
      "name": "chassis_Mat_maverick.009_ec1351.bmp_0"
    },
    {
      "mesh": 4,
      "name": "chassis_Mat_maverick.010_0"
    }
  ],
  "samplers": [
    {
      "magFilter": 9729,
      "minFilter": 9987,
      "wrapS": 10497,
      "wrapT": 10497
    }
  ],
  "scene": 0,
  "scenes": [
    {
      "name": "Sketchfab_Scene",
      "nodes": [
        0
      ]
    }
  ],
  "textures": [
    {
      "sampler": 0,
      "source": 0
    },
    {
      "sampler": 0,
      "source": 1
    }
  ]
}
